<?xml version="1.0" encoding="UTF-8"?>
<svg id="Ebene_1" data-name="Ebene 1" xmlns="http://www.w3.org/2000/svg" xmlns:xlink="http://www.w3.org/1999/xlink" viewBox="0 0 2896.21 887.37">
  <defs>
    <style>
      .cls-1 {
        fill: #93c005;
      }

      .cls-2 {
        clip-path: url(#clippath-2);
      }

      .cls-2, .cls-3, .cls-4, .cls-5 {
        fill: none;
      }

      .cls-6 {
        fill: url(#Unbenannter_Verlauf_2);
      }

      .cls-7 {
        fill: url(#Unbenannter_Verlauf_4);
      }

      .cls-8 {
        fill: url(#Unbenannter_Verlauf);
      }

      .cls-4 {
        clip-path: url(#clippath);
      }

      .cls-5 {
        clip-path: url(#clippath-1);
      }

      .cls-9 {
        fill: url(#Unbenannter_Verlauf_3);
      }
    </style>
    <linearGradient id="Unbenannter_Verlauf" data-name="Unbenannter Verlauf" x1="-3490.06" y1="-1584.42" x2="-3163.02" y2="-1911.46" gradientTransform="translate(-2942.38 2109.37) rotate(-180) scale(1 -1)" gradientUnits="userSpaceOnUse">
      <stop offset=".02" stop-color="#0098a1"/>
      <stop offset=".95" stop-color="#93c005"/>
    </linearGradient>
    <clipPath id="clippath">
      <path class="cls-3" d="m1445.98,486.11c-13.76-14.59-29.74-25.94-47.94-34.06s-37.9-12.18-59.11-12.18-40.95,4.06-59.22,12.18-34.25,19.48-47.94,34.06c-13.69,14.59-24.4,31.58-32.15,50.98-7.75,19.4-11.62,40.31-11.62,62.72s3.87,43.31,11.62,62.72c7.74,19.4,18.46,36.4,32.15,50.98,13.68,14.59,29.67,25.94,47.94,34.06,18.27,8.12,38.01,12.18,59.22,12.18s40.91-4.06,59.11-12.18,34.18-19.48,47.94-34.06c13.76-14.59,24.48-31.58,32.15-50.98,7.67-19.4,11.51-40.3,11.51-62.72s-3.83-43.31-11.51-62.72c-7.67-19.4-18.39-36.4-32.15-50.98h0Z"/>
    </clipPath>
    <linearGradient id="Unbenannter_Verlauf_2" data-name="Unbenannter Verlauf 2" x1="555.21" y1="-89.87" x2="2896.21" y2="-89.87" gradientTransform="translate(0 510) scale(1 -1)" gradientUnits="userSpaceOnUse">
      <stop offset="0" stop-color="#0098a1"/>
      <stop offset="1" stop-color="#343434"/>
    </linearGradient>
    <clipPath id="clippath-1">
      <path class="cls-3" d="m2573.55,312.3l-192.82,272.39,142.35,201.01h-42.86l-120.69-171-120.92,171h-42.86l142.58-201.01-120.47-171.23h41.51l100.17,142.13,172.64-243.29H555.49v575.01h2097.71V312.3h-79.65Zm-1533.98,473.4l-41.28-308.39-106.26,285.6h-24.59l-106.26-285.6-41.28,308.39h-34.29l48.28-372.23h36.32l109.41,291.25,109.64-291.25h36.32l48.28,372.23h-34.29,0Zm472.51-110.66c-9.7,23.39-23.12,43.92-40.27,61.59-17.15,17.67-37.08,31.47-59.78,41.4-22.71,9.93-47.08,14.89-73.09,14.89s-50.39-4.96-73.09-14.89c-22.71-9.93-42.64-23.72-59.78-41.4-17.14-17.67-30.57-38.2-40.27-61.59-9.7-23.38-14.55-48.46-14.55-75.24s4.85-52.04,14.55-75.35c9.7-23.31,23.12-43.8,40.27-61.48,17.15-17.67,37.07-31.47,59.78-41.4,22.71-9.93,47.07-14.89,73.09-14.89s50.38,4.96,73.09,14.89c22.71,9.93,42.64,23.73,59.78,41.4,17.15,17.67,30.57,38.16,40.27,61.48,9.7,23.31,14.55,48.43,14.55,75.35s-4.85,51.85-14.55,75.24Zm308.5,110.66l-118.66-156.79h-42.41v156.79h-34.29v-372.23h96.56c24.36,0,45.42,4.21,63.17,12.63,17.74,8.42,31.47,20.49,41.17,36.21,9.7,15.72,14.55,34.48,14.55,56.29,0,20-4.1,37.64-12.29,52.9-8.2,15.27-19.78,27.6-34.74,37-14.97,9.4-32.75,15.15-53.35,17.26l123.85,159.95h-43.56Zm202.81-161.3v161.3h-34.29v-161.3l-127.91-210.93h41.28l103.77,174.39,103.77-174.39h41.51l-128.14,210.93h.01Z"/>
    </clipPath>
    <linearGradient id="Unbenannter_Verlauf_3" data-name="Unbenannter Verlauf 3" x1="555.21" y1="-89.87" x2="2896.21" y2="-89.87" gradientTransform="translate(0 510) scale(1 -1)" gradientUnits="userSpaceOnUse">
      <stop offset="0" stop-color="#0098a1"/>
      <stop offset="1" stop-color="#343434"/>
    </linearGradient>
    <clipPath id="clippath-2">
      <path class="cls-3" d="m1794.3,561.79c7.45-11.96,11.17-26.06,11.17-42.3,0-24.36-8.12-43.46-24.37-57.3-16.24-13.84-38.73-20.75-67.45-20.75h-54.14v157.69h54.14c18.95,0,35.27-3.23,48.95-9.7,13.68-6.46,24.25-15.68,31.7-27.64Z"/>
    </clipPath>
    <linearGradient id="Unbenannter_Verlauf_4" data-name="Unbenannter Verlauf 4" x1="555.21" y1="-89.87" x2="2896.21" y2="-89.87" gradientTransform="translate(0 510) scale(1 -1)" gradientUnits="userSpaceOnUse">
      <stop offset="0" stop-color="#0098a1"/>
      <stop offset="1" stop-color="#343434"/>
    </linearGradient>
  </defs>
  <g>
    <polygon class="cls-8" points="237.84 180.72 530.49 180.72 530.49 542.15 237.84 542.15 237.84 180.72"/>
    <rect class="cls-1" width="212.84" height="262.86"/>
    <g>
      <path class="cls-3" d="m1471.82,462.98c-17.15-17.67-37.08-31.47-59.78-41.4-22.71-9.93-47.08-14.89-73.09-14.89s-50.39,4.96-73.09,14.89c-22.71,9.93-42.64,23.73-59.78,41.4-17.14,17.67-30.57,38.16-40.27,61.48-9.7,23.31-14.55,48.43-14.55,75.35s4.85,51.85,14.55,75.24c9.7,23.39,23.12,43.92,40.27,61.59,17.15,17.67,37.07,31.47,59.78,41.4,22.71,9.93,47.07,14.89,73.09,14.89s50.38-4.96,73.09-14.89,42.64-23.72,59.78-41.4c17.15-17.67,30.57-38.2,40.27-61.59,9.7-23.38,14.55-48.46,14.55-75.24s-4.85-52.04-14.55-75.35c-9.7-23.31-23.12-43.8-40.27-61.48Z"/>
      <polygon class="cls-3" points="989.27 413.46 879.63 704.71 770.21 413.46 733.89 413.46 685.61 785.7 719.91 785.7 761.19 477.31 867.45 762.91 892.04 762.91 998.29 477.31 1039.58 785.7 1073.87 785.7 1025.59 413.46 989.27 413.46"/>
      <path class="cls-3" d="m1793.63,608.49c14.96-9.4,26.54-21.73,34.74-37,8.2-15.26,12.29-32.9,12.29-52.9,0-21.81-4.85-40.57-14.55-56.29-9.7-15.71-23.43-27.78-41.17-36.21-17.75-8.42-38.8-12.63-63.17-12.63h-96.56v372.23h34.29v-156.79h42.41l118.66,156.79h43.54l-123.85-159.95c20.6-2.1,38.39-7.86,53.35-17.26h.02,0Z"/>
      <polygon class="cls-3" points="2006.25 587.85 1902.48 413.46 1861.19 413.46 1989.1 624.4 1989.1 785.7 2023.4 785.7 2023.4 624.4 2151.53 413.46 2110.02 413.46 2006.25 587.85"/>
      <g class="cls-4">
        <rect class="cls-6" x="555.21" y="312.37" width="2341" height="575"/>
      </g>
      <g class="cls-5">
        <rect class="cls-9" x="555.21" y="312.37" width="2341" height="575"/>
      </g>
      <g class="cls-2">
        <rect class="cls-7" x="555.21" y="312.37" width="2341" height="575"/>
      </g>
    </g>
  </g>
  <g>
    <path d="m1142.27,283.27v-83.76h32.88c7.28,0,12.84,2.1,16.68,6.3,3.84,4.2,5.76,9.9,5.76,17.1s-1.92,13.02-5.76,17.22-9.4,6.3-16.68,6.3h-25.68v36.84h-7.2Zm7.2-43.2h25.68c4.8,0,8.46-1.34,10.98-4.02,2.52-2.68,3.78-6.1,3.78-10.26v-5.76c0-4.08-1.26-7.46-3.78-10.14s-6.18-4.02-10.98-4.02h-25.68v34.2Z"/>
    <path d="m1234.07,284.71c-4.08,0-7.76-.72-11.04-2.16s-6.08-3.54-8.4-6.3c-2.32-2.76-4.12-6.14-5.4-10.14s-1.92-8.52-1.92-13.56.64-9.54,1.92-13.5,3.08-7.32,5.4-10.08c2.32-2.76,5.12-4.88,8.4-6.36s6.96-2.22,11.04-2.22,7.76.74,11.04,2.22,6.08,3.6,8.4,6.36c2.32,2.76,4.12,6.12,5.4,10.08s1.92,8.46,1.92,13.5-.64,9.56-1.92,13.56-3.08,7.38-5.4,10.14c-2.32,2.76-5.12,4.86-8.4,6.3s-6.96,2.16-11.04,2.16Zm0-6.12c6,0,10.74-1.88,14.22-5.64s5.22-9.28,5.22-16.56v-7.68c0-7.2-1.74-12.7-5.22-16.5s-8.22-5.7-14.22-5.7-10.74,1.88-14.22,5.64-5.22,9.28-5.22,16.56v7.68c0,7.2,1.74,12.7,5.22,16.5s8.22,5.7,14.22,5.7Z"/>
    <path d="m1270.67,221.83h6.72l14.76,55.32h.24l16.32-55.32h6.36l16.44,55.32h.24l14.64-55.32h6.6l-17.28,61.44h-8.4l-15.48-51.72h-.24l-15.36,51.72h-8.28l-17.28-61.44h0Z"/>
    <path d="m1389.71,284.71c-4.08,0-7.78-.72-11.1-2.16s-6.16-3.54-8.52-6.3c-2.36-2.76-4.16-6.14-5.4-10.14s-1.86-8.52-1.86-13.56.62-9.54,1.86-13.5,3.04-7.32,5.4-10.08,5.18-4.88,8.46-6.36c3.28-1.48,6.96-2.22,11.04-2.22s7.48.74,10.68,2.23c3.2,1.48,5.92,3.55,8.16,6.2s3.98,5.84,5.22,9.58c1.24,3.73,1.86,7.85,1.86,12.34v3.25h-45.48v3c0,3.2.46,6.14,1.38,8.82s2.24,4.98,3.96,6.9c1.72,1.92,3.82,3.42,6.3,4.5,2.48,1.08,5.28,1.62,8.4,1.62,8.96,0,15.16-4.12,18.6-12.36l5.04,3.34c-1.92,4.53-4.94,8.15-9.06,10.85-4.12,2.7-9.1,4.05-14.94,4.05h0Zm-.12-58.44c-2.96,0-5.64.54-8.04,1.62s-4.46,2.58-6.18,4.5c-1.72,1.92-3.04,4.22-3.96,6.9-.92,2.68-1.38,5.62-1.38,8.82v.6h38.04v-.96c0-3.2-.44-6.14-1.32-8.82s-2.14-4.94-3.78-6.78-3.6-3.28-5.88-4.32c-2.28-1.04-4.78-1.56-7.5-1.56Z"/>
    <path d="m1432.92,283.27v-61.44h6.84v11.04h.48c1.2-2.88,3.24-5.44,6.12-7.68,2.88-2.24,6.96-3.36,12.24-3.36h4.08v6.72h-5.4c-5.12,0-9.32,1.12-12.6,3.36s-4.92,5.36-4.92,9.36v42h-6.84,0Z"/>
    <path d="m1497.35,284.71c-4.08,0-7.78-.72-11.1-2.16s-6.16-3.54-8.52-6.3c-2.36-2.76-4.16-6.14-5.4-10.14s-1.86-8.52-1.86-13.56.62-9.54,1.86-13.5,3.04-7.32,5.4-10.08,5.18-4.88,8.46-6.36c3.28-1.48,6.96-2.22,11.04-2.22s7.48.74,10.68,2.23c3.2,1.48,5.92,3.55,8.16,6.2s3.98,5.84,5.22,9.58c1.24,3.73,1.86,7.85,1.86,12.34v3.25h-45.48v3c0,3.2.46,6.14,1.38,8.82s2.24,4.98,3.96,6.9c1.72,1.92,3.82,3.42,6.3,4.5,2.48,1.08,5.28,1.62,8.4,1.62,8.96,0,15.16-4.12,18.6-12.36l5.04,3.34c-1.92,4.53-4.94,8.15-9.06,10.85-4.12,2.7-9.1,4.05-14.94,4.05h0Zm-.12-58.44c-2.96,0-5.64.54-8.04,1.62s-4.46,2.58-6.18,4.5c-1.72,1.92-3.04,4.22-3.96,6.9-.92,2.68-1.38,5.62-1.38,8.82v.6h38.04v-.96c0-3.2-.44-6.14-1.32-8.82s-2.14-4.94-3.78-6.78-3.6-3.28-5.88-4.32c-2.28-1.04-4.78-1.56-7.5-1.56Z"/>
    <path d="m1580.27,273.43h-.36c-1.6,3.44-3.94,6.18-7.02,8.22-3.08,2.04-6.98,3.06-11.7,3.06-7.92,0-14.12-2.8-18.6-8.4s-6.72-13.52-6.72-23.76,2.24-18.16,6.72-23.76c4.48-5.6,10.68-8.4,18.6-8.4,4.72,0,8.64,1.02,11.76,3.06s5.44,4.78,6.96,8.22h.36v-37.2h6.84v88.8h-6.84v-9.84h0Zm-17.52,5.16c2.4,0,4.66-.32,6.78-.96,2.12-.64,3.98-1.58,5.58-2.82,1.6-1.24,2.86-2.72,3.78-4.44s1.38-3.66,1.38-5.82v-24.36c0-2-.46-3.84-1.38-5.52-.92-1.68-2.18-3.12-3.78-4.32-1.6-1.2-3.46-2.14-5.58-2.82-2.12-.68-4.38-1.02-6.78-1.02-6.16,0-10.96,1.96-14.4,5.88-3.44,3.92-5.16,9.2-5.16,15.84v8.64c0,6.64,1.72,11.92,5.16,15.84,3.44,3.92,8.24,5.88,14.4,5.88h0Z"/>
    <path d="m1637.75,194.47h6.84v37.2h.36c1.52-3.44,3.84-6.18,6.96-8.22s7.04-3.06,11.76-3.06c7.92,0,14.12,2.8,18.6,8.4,4.48,5.6,6.72,13.52,6.72,23.76s-2.24,18.16-6.72,23.76-10.68,8.4-18.6,8.4c-4.72,0-8.6-1.02-11.64-3.06s-5.4-4.78-7.08-8.22h-.36v9.84h-6.84v-88.8h0Zm24.36,84.12c6.16,0,10.96-1.96,14.4-5.88,3.44-3.92,5.16-9.2,5.16-15.84v-8.64c0-6.64-1.72-11.92-5.16-15.84-3.44-3.92-8.24-5.88-14.4-5.88-2.4,0-4.66.34-6.78,1.02-2.12.68-3.98,1.62-5.58,2.82-1.6,1.2-2.86,2.64-3.78,4.32-.92,1.68-1.38,3.52-1.38,5.52v24.36c0,2.16.46,4.1,1.38,5.82s2.18,3.2,3.78,4.44,3.46,2.18,5.58,2.82,4.38.96,6.78.96h0Z"/>
    <path d="m1742.75,221.83h6.96l-28.44,78.72c-.96,2.56-2.12,4.32-3.48,5.28s-3.6,1.44-6.72,1.44h-6.96v-5.88h10.32l5.88-16.22-22.8-63.34h7.2l18.84,54.22h.48l18.72-54.22h0Z"/>
    <path d="m1792.55,283.27v-83.76h32.88c7.28,0,12.84,2.1,16.68,6.3,3.84,4.2,5.76,9.9,5.76,17.1s-1.92,13.02-5.76,17.22-9.4,6.3-16.68,6.3h-25.68v36.84h-7.2Zm7.2-43.2h25.68c4.8,0,8.46-1.34,10.98-4.02,2.52-2.68,3.78-6.1,3.78-10.26v-5.76c0-4.08-1.26-7.46-3.78-10.14s-6.18-4.02-10.98-4.02h-25.68v34.2Z"/>
    <path d="m1863.96,194.47h6.84v37.08h.36c1.36-3.2,3.48-5.86,6.36-7.98s6.8-3.18,11.76-3.18c6.56,0,11.66,2.02,15.3,6.06s5.46,9.82,5.46,17.34v39.48h-6.84v-38.28c0-6.24-1.34-10.88-4.02-13.92s-6.58-4.56-11.7-4.56c-2.16,0-4.24.28-6.24.84s-3.78,1.4-5.34,2.52c-1.56,1.12-2.8,2.54-3.72,4.26-.92,1.72-1.38,3.7-1.38,5.94v43.2h-6.84v-88.8h0Z"/>
    <path d="m1953.35,284.71c-4.08,0-7.76-.72-11.04-2.16s-6.08-3.54-8.4-6.3c-2.32-2.76-4.12-6.14-5.4-10.14s-1.92-8.52-1.92-13.56.64-9.54,1.92-13.5,3.08-7.32,5.4-10.08c2.32-2.76,5.12-4.88,8.4-6.36s6.96-2.22,11.04-2.22,7.76.74,11.04,2.22,6.08,3.6,8.4,6.36c2.32,2.76,4.12,6.12,5.4,10.08s1.92,8.46,1.92,13.5-.64,9.56-1.92,13.56-3.08,7.38-5.4,10.14c-2.32,2.76-5.12,4.86-8.4,6.3s-6.96,2.16-11.04,2.16Zm0-6.12c6,0,10.74-1.88,14.22-5.64s5.22-9.28,5.22-16.56v-7.68c0-7.2-1.74-12.7-5.22-16.5s-8.22-5.7-14.22-5.7-10.74,1.88-14.22,5.64-5.22,9.28-5.22,16.56v7.68c0,7.2,1.74,12.7,5.22,16.5s8.22,5.7,14.22,5.7Z"/>
    <path d="m2019.47,284.71c-4.08,0-7.78-.72-11.1-2.16s-6.16-3.54-8.52-6.3c-2.36-2.76-4.16-6.14-5.4-10.14s-1.86-8.52-1.86-13.56.62-9.54,1.86-13.5,3.04-7.32,5.4-10.08,5.18-4.88,8.46-6.36c3.28-1.48,6.96-2.22,11.04-2.22s7.48.74,10.68,2.23c3.2,1.48,5.92,3.55,8.16,6.2s3.98,5.84,5.22,9.58c1.24,3.73,1.86,7.85,1.86,12.34v3.25h-45.48v3c0,3.2.46,6.14,1.38,8.82s2.24,4.98,3.96,6.9c1.72,1.92,3.82,3.42,6.3,4.5,2.48,1.08,5.28,1.62,8.4,1.62,8.96,0,15.16-4.12,18.6-12.36l5.04,3.34c-1.92,4.53-4.94,8.15-9.06,10.85-4.12,2.7-9.1,4.05-14.94,4.05h0Zm-.12-58.44c-2.96,0-5.64.54-8.04,1.62s-4.46,2.58-6.18,4.5c-1.72,1.92-3.04,4.22-3.96,6.9-.92,2.68-1.38,5.62-1.38,8.82v.6h38.04v-.96c0-3.2-.44-6.14-1.32-8.82s-2.14-4.94-3.78-6.78-3.6-3.28-5.88-4.32c-2.28-1.04-4.78-1.56-7.5-1.56Z"/>
    <path d="m2062.67,283.27v-61.44h6.84v9.72h.36c1.36-3.2,3.48-5.86,6.36-7.98,2.88-2.12,6.8-3.18,11.76-3.18,6.56,0,11.66,2.02,15.3,6.06,3.64,4.04,5.46,9.82,5.46,17.34v39.48h-6.84v-38.28c0-6.24-1.34-10.88-4.02-13.92s-6.58-4.56-11.7-4.56c-2.16,0-4.24.28-6.24.84s-3.78,1.4-5.34,2.52c-1.56,1.12-2.8,2.54-3.72,4.26s-1.38,3.7-1.38,5.94v43.2h-6.84Z"/>
    <path d="m2133.59,205.15c-1.6,0-2.78-.4-3.54-1.2s-1.14-1.84-1.14-3.12v-1.2c0-1.28.38-2.32,1.14-3.12.76-.8,1.94-1.2,3.54-1.2s2.78.4,3.54,1.2,1.14,1.84,1.14,3.12v1.2c0,1.28-.38,2.32-1.14,3.12-.76.8-1.94,1.2-3.54,1.2Zm-3.36,16.68h6.84v61.44h-6.84v-61.44Z"/>
    <path d="m2151.35,283.27l22.8-30.96-21.96-30.48h8.04l17.52,25.08h.36l17.88-25.08h7.68l-21.84,30,22.44,31.44h-8.04l-18.12-25.92h-.24l-18.84,25.92h-7.68,0Z"/>
    <path d="m2275.92,284.71c-10.4,0-18.44-3.62-24.12-10.86-5.68-7.24-8.52-17.98-8.52-32.22s2.84-24.96,8.52-32.4,13.72-11.16,24.12-11.16c6.72,0,12.38,1.58,16.98,4.74s8.18,7.5,10.74,13.02l-5.88,3.48c-1.84-4.56-4.62-8.18-8.34-10.86s-8.22-4.02-13.5-4.02c-7.84,0-13.96,2.81-18.36,8.43-4.4,5.62-6.6,13.64-6.6,24.08v9.51c0,10.35,2.2,18.26,6.6,23.72,4.4,5.46,10.52,8.19,18.36,8.19,5.6,0,10.28-1.42,14.04-4.26s6.56-6.66,8.4-11.46l5.88,3.48c-2.48,5.76-6.12,10.3-10.92,13.62-4.8,3.32-10.6,4.98-17.4,4.98h0Z"/>
    <path d="m2342.75,284.71c-4.08,0-7.76-.72-11.04-2.16s-6.08-3.54-8.4-6.3c-2.32-2.76-4.12-6.14-5.4-10.14-1.28-4-1.92-8.52-1.92-13.56s.64-9.54,1.92-13.5,3.08-7.32,5.4-10.08c2.32-2.76,5.12-4.88,8.4-6.36,3.28-1.48,6.96-2.22,11.04-2.22s7.76.74,11.04,2.22,6.08,3.6,8.4,6.36c2.32,2.76,4.12,6.12,5.4,10.08,1.28,3.96,1.92,8.46,1.92,13.5s-.64,9.56-1.92,13.56-3.08,7.38-5.4,10.14c-2.32,2.76-5.12,4.86-8.4,6.3-3.28,1.44-6.96,2.16-11.04,2.16Zm0-6.12c6,0,10.74-1.88,14.22-5.64s5.22-9.28,5.22-16.56v-7.68c0-7.2-1.74-12.7-5.22-16.5s-8.22-5.7-14.22-5.7-10.74,1.88-14.22,5.64-5.22,9.28-5.22,16.56v7.68c0,7.2,1.74,12.7,5.22,16.5s8.22,5.7,14.22,5.7Z"/>
    <path d="m2386.92,283.27v-61.44h6.84v9.72h.36c1.36-3.2,3.48-5.86,6.36-7.98,2.88-2.12,6.8-3.18,11.76-3.18,6.56,0,11.66,2.02,15.3,6.06,3.64,4.04,5.46,9.82,5.46,17.34v39.48h-6.84v-38.28c0-6.24-1.34-10.88-4.02-13.92s-6.58-4.56-11.7-4.56c-2.16,0-4.24.28-6.24.84s-3.78,1.4-5.34,2.52c-1.56,1.12-2.8,2.54-3.72,4.26s-1.38,3.7-1.38,5.94v43.2h-6.84Z"/>
    <path d="m2465.03,283.27c-2.48,0-4.36-.68-5.64-2.04-1.28-1.36-1.92-3.21-1.92-5.53v-47.98h-10.68v-5.88h6.96c1.68,0,2.82-.34,3.42-1.02.6-.68.9-1.9.9-3.66v-12.48h6.24v17.16h13.92v5.88h-13.92v49.68h12.96v5.88h-12.24Z"/>
    <path d="m2536.92,283.27c-2.64,0-4.56-.68-5.76-2.04-1.2-1.36-1.88-3.2-2.04-5.52v-2.16h-.6c-1.36,3.44-3.6,6.16-6.72,8.16-3.12,2-7.08,3-11.88,3-6.48,0-11.48-1.58-15-4.76-3.52-3.17-5.28-7.65-5.28-13.42,0-5.46,1.94-9.79,5.82-13,3.88-3.21,10.26-4.82,19.14-4.82h14.16v-7.2c0-10.16-5.24-15.24-15.72-15.24-4.08,0-7.48.86-10.2,2.58s-4.92,4.18-6.6,7.38l-4.32-3.57c1.68-3.57,4.26-6.51,7.74-8.81s8.02-3.45,13.62-3.45c7.2,0,12.72,1.8,16.56,5.41s5.76,8.66,5.76,15.15v36.44h8.28v5.88h-6.96Zm-26.04-4.44c2.48,0,4.8-.32,6.96-.96,2.16-.64,4.06-1.55,5.7-2.71,1.64-1.17,2.92-2.57,3.84-4.22.92-1.65,1.38-3.52,1.38-5.61v-11.45h-14.4c-6.16,0-10.62.99-13.38,2.96s-4.14,4.68-4.14,8.14v2.89c0,3.62,1.28,6.35,3.84,8.2s5.96,2.77,10.2,2.77h0Z"/>
    <path d="m2579.51,284.71c-8.48,0-15.02-2.8-19.62-8.4s-6.9-13.52-6.9-23.76,2.3-18.16,6.9-23.76c4.6-5.6,11.14-8.4,19.62-8.4,5.68,0,10.28,1.24,13.8,3.72s6.2,5.76,8.04,9.84l-5.76,2.88c-1.44-3.36-3.46-5.92-6.06-7.68s-5.94-2.64-10.02-2.64c-6.24,0-11,2-14.28,6s-4.92,9.24-4.92,15.72v8.64c0,6.48,1.64,11.72,4.92,15.72s8.04,6,14.28,6c4.24,0,7.8-.92,10.68-2.76s5.2-4.48,6.96-7.92l5.04,3.36c-2,4.08-4.86,7.34-8.58,9.78s-8.42,3.66-14.1,3.66h0Z"/>
    <path d="m2627.99,283.27c-2.48,0-4.36-.68-5.64-2.04-1.28-1.36-1.92-3.21-1.92-5.53v-47.98h-10.68v-5.88h6.96c1.68,0,2.82-.34,3.42-1.02.6-.68.9-1.9.9-3.66v-12.48h6.24v17.16h13.92v5.88h-13.92v49.68h12.96v5.88h-12.24Z"/>
  </g>
</svg>