<?xml version="1.0" encoding="UTF-8"?> <!-- Generator: Adobe Illustrator 24.1.0, SVG Export Plug-In . SVG Version: 6.00 Build 0) --> <svg xmlns="http://www.w3.org/2000/svg" xmlns:xlink="http://www.w3.org/1999/xlink" version="1.1" id="Ebene_1" x="0px" y="0px" viewBox="0 0 2653.2 887.3" style="enable-background:new 0 0 2653.2 887.3;" xml:space="preserve"> <style type="text/css"> .st0{fill:#0098A1;} .st1{fill:url(#SVGID_1_);} .st2{fill:#93C005;} .st3{fill:url(#SVGID_2_);} .st4{clip-path:url(#SVGID_4_);fill:url(#SVGID_5_);} .st5{fill:url(#SVGID_6_);} .st6{clip-path:url(#SVGID_8_);fill:url(#SVGID_9_);} .st7{fill:url(#SVGID_10_);} .st8{clip-path:url(#SVGID_12_);fill:url(#SVGID_13_);} .st9{clip-path:url(#SVGID_15_);fill:url(#SVGID_16_);} .st10{clip-path:url(#SVGID_18_);fill:url(#SVGID_19_);} .st11{fill:url(#SVGID_20_);} .st12{fill:none;} .st13{clip-path:url(#SVGID_22_);fill:url(#SVGID_23_);} .st14{clip-path:url(#SVGID_25_);fill:url(#SVGID_26_);} .st15{clip-path:url(#SVGID_28_);fill:url(#SVGID_29_);} .st16{fill:#FF0000;} </style> <g> <linearGradient id="SVGID_1_" gradientUnits="userSpaceOnUse" x1="-8128.0674" y1="3044.4136" x2="-7801.0234" y2="3371.4578" gradientTransform="matrix(-1 0 0 -1 -7580.3784 3569.3696)"> <stop offset="1.762979e-02" style="stop-color:#0098A1"></stop> <stop offset="0.9526" style="stop-color:#93C005"></stop> </linearGradient> <polygon class="st1" points="237.8,180.7 530.5,180.7 530.5,542.2 237.8,542.2 "></polygon> <rect transform="matrix(-1 -1.224647e-16 1.224647e-16 -1 212.8396 262.8611)" class="st2" width="212.8" height="262.9"></rect> <g> <path class="st12" d="M1471.8,463c-17.1-17.7-37.1-31.5-59.8-41.4c-22.7-9.9-47.1-14.9-73.1-14.9c-26,0-50.4,5-73.1,14.9 c-22.7,9.9-42.6,23.7-59.8,41.4c-17.1,17.7-30.6,38.2-40.3,61.5c-9.7,23.3-14.6,48.4-14.6,75.3c0,26.8,4.9,51.9,14.6,75.2 c9.7,23.4,23.1,43.9,40.3,61.6c17.1,17.7,37.1,31.5,59.8,41.4c22.7,9.9,47.1,14.9,73.1,14.9c26,0,50.4-5,73.1-14.9 c22.7-9.9,42.6-23.7,59.8-41.4c17.1-17.7,30.6-38.2,40.3-61.6c9.7-23.4,14.6-48.5,14.6-75.2c0-26.9-4.9-52-14.6-75.3 C1502.4,501.1,1489,480.7,1471.8,463z"></path> <polygon class="st12" points="989.3,413.5 879.6,704.7 770.2,413.5 733.9,413.5 685.6,785.7 719.9,785.7 761.2,477.3 867.4,762.9 892,762.9 998.3,477.3 1039.6,785.7 1073.9,785.7 1025.6,413.5 "></polygon> <path class="st12" d="M1793.6,608.5c15-9.4,26.5-21.7,34.7-37c8.2-15.3,12.3-32.9,12.3-52.9c0-21.8-4.9-40.6-14.6-56.3 c-9.7-15.7-23.4-27.8-41.2-36.2c-17.7-8.4-38.8-12.6-63.2-12.6h-96.6v372.2h34.3V628.9h42.4l118.7,156.8h43.5l-123.9-159.9 C1760.9,623.6,1778.7,617.9,1793.6,608.5z"></path> <polygon class="st12" points="2006.2,587.8 1902.5,413.5 1861.2,413.5 1989.1,624.4 1989.1,785.7 2023.4,785.7 2023.4,624.4 2151.5,413.5 2110,413.5 "></polygon> <g> <defs> <path id="SVGID_21_" d="M1446,486.1c-13.8-14.6-29.7-25.9-47.9-34.1c-18.2-8.1-37.9-12.2-59.1-12.2s-40.9,4.1-59.2,12.2 c-18.3,8.1-34.3,19.5-47.9,34.1c-13.7,14.6-24.4,31.6-32.1,51c-7.7,19.4-11.6,40.3-11.6,62.7c0,22.4,3.9,43.3,11.6,62.7 c7.7,19.4,18.5,36.4,32.1,51c13.7,14.6,29.7,25.9,47.9,34.1c18.3,8.1,38,12.2,59.2,12.2s40.9-4.1,59.1-12.2 c18.2-8.1,34.2-19.5,47.9-34.1c13.8-14.6,24.5-31.6,32.1-51c7.7-19.4,11.5-40.3,11.5-62.7c0-22.4-3.8-43.3-11.5-62.7 C1470.5,517.7,1459.7,500.7,1446,486.1z"></path> </defs> <clipPath id="SVGID_2_"> <use xlink:href="#SVGID_21_" style="overflow:visible;"></use> </clipPath> <linearGradient id="SVGID_4_" gradientUnits="userSpaceOnUse" x1="555.2085" y1="599.8699" x2="2896.2085" y2="599.8699"> <stop offset="0" style="stop-color:#0098A1"></stop> <stop offset="1" style="stop-color:#343434"></stop> </linearGradient> <rect x="555.2" y="312.4" style="clip-path:url(#SVGID_2_);fill:url(#SVGID_4_);" width="2341" height="575"></rect> </g> <g> <defs> <path id="SVGID_24_" d="M2573.6,312.3l-192.8,272.4l142.4,201h-42.9l-120.7-171l-120.9,171h-42.9l142.6-201l-120.5-171.2h41.5 l100.2,142.1l172.6-243.3H555.5v575h2097.7v-575H2573.6z M1039.6,785.7l-41.3-308.4L892,762.9h-24.6L761.2,477.3l-41.3,308.4 h-34.3l48.3-372.2h36.3l109.4,291.2l109.6-291.2h36.3l48.3,372.2H1039.6z M1512.1,675c-9.7,23.4-23.1,43.9-40.3,61.6 c-17.1,17.7-37.1,31.5-59.8,41.4c-22.7,9.9-47.1,14.9-73.1,14.9c-26,0-50.4-5-73.1-14.9c-22.7-9.9-42.6-23.7-59.8-41.4 c-17.1-17.7-30.6-38.2-40.3-61.6c-9.7-23.4-14.6-48.5-14.6-75.2c0-26.9,4.9-52,14.6-75.3c9.7-23.3,23.1-43.8,40.3-61.5 c17.1-17.7,37.1-31.5,59.8-41.4c22.7-9.9,47.1-14.9,73.1-14.9c26,0,50.4,5,73.1,14.9c22.7,9.9,42.6,23.7,59.8,41.4 c17.1,17.7,30.6,38.2,40.3,61.5c9.7,23.3,14.6,48.4,14.6,75.3C1526.6,626.6,1521.8,651.7,1512.1,675z M1820.6,785.7 l-118.7-156.8h-42.4v156.8h-34.3V413.5h96.6c24.4,0,45.4,4.2,63.2,12.6c17.7,8.4,31.5,20.5,41.2,36.2 c9.7,15.7,14.6,34.5,14.6,56.3c0,20-4.1,37.6-12.3,52.9c-8.2,15.3-19.8,27.6-34.7,37c-15,9.4-32.8,15.2-53.4,17.3l123.9,159.9 H1820.6z M2023.4,624.4v161.3h-34.3V624.4l-127.9-210.9h41.3l103.8,174.4L2110,413.5h41.5L2023.4,624.4z"></path> </defs> <clipPath id="SVGID_5_"> <use xlink:href="#SVGID_24_" style="overflow:visible;"></use> </clipPath> <linearGradient id="SVGID_6_" gradientUnits="userSpaceOnUse" x1="555.2085" y1="599.8699" x2="2896.2085" y2="599.8699"> <stop offset="0" style="stop-color:#0098A1"></stop> <stop offset="1" style="stop-color:#343434"></stop> </linearGradient> <rect x="555.2" y="312.4" style="clip-path:url(#SVGID_5_);fill:url(#SVGID_6_);" width="2341" height="575"></rect> </g> <g> <defs> <path id="SVGID_27_" d="M1794.3,561.8c7.4-12,11.2-26.1,11.2-42.3c0-24.4-8.1-43.5-24.4-57.3c-16.2-13.8-38.7-20.8-67.5-20.8 h-54.1v157.7h54.1c19,0,35.3-3.2,49-9.7C1776.3,583,1786.9,573.8,1794.3,561.8z"></path> </defs> <clipPath id="SVGID_8_"> <use xlink:href="#SVGID_27_" style="overflow:visible;"></use> </clipPath> <linearGradient id="SVGID_9_" gradientUnits="userSpaceOnUse" x1="555.2085" y1="599.8699" x2="2896.2085" y2="599.8699"> <stop offset="0" style="stop-color:#0098A1"></stop> <stop offset="1" style="stop-color:#343434"></stop> </linearGradient> <rect x="555.2" y="312.4" class="st6" width="2341" height="575"></rect> </g> </g> </g> </svg> 