<svg width="366" height="312" xmlns="http://www.w3.org/2000/svg" xmlns:xlink="http://www.w3.org/1999/xlink" overflow="hidden"><defs><clipPath id="clip0"><path d="M57 360 423 360 423 672 57 672Z" fill-rule="evenodd" clip-rule="evenodd"/></clipPath></defs><g clip-path="url(#clip0)" transform="translate(-57 -360)"><path d="M58 515.5C58 429.62 139.484 360 240 360 340.516 360 422 429.62 422 515.5 422 601.38 340.516 671 240 671 139.484 671 58 601.38 58 515.5Z" fill="#EFFBC6" fill-rule="evenodd"/><text font-family="Arial,Arial_MSFontService,sans-serif" font-weight="400" font-size="19" transform="translate(211.215 399)">IDevice<tspan x="-51.7467" y="23">(</tspan><tspan x="-45.58" y="23">DeviceCapabilities</tspan><tspan x="107.753" y="23">)</tspan></text><path d="M65 530C65 477.533 129.247 435 208.5 435 287.753 435 352 477.533 352 530 352 582.467 287.753 625 208.5 625 129.247 625 65 582.467 65 530Z" fill="#CFF353" fill-rule="evenodd"/><text font-family="Arial,Arial_MSFontService,sans-serif" font-weight="400" font-size="19" transform="translate(144.386 481)">LightCapabilities</text><path d="M91 524.5C91 517.044 96.5964 511 103.5 511 110.404 511 116 517.044 116 524.5 116 531.956 110.404 538 103.5 538 96.5964 538 91 531.956 91 524.5Z" fill="#96BE0D" fill-rule="evenodd"/><text font-family="Arial,Arial_MSFontService,sans-serif" font-weight="400" font-size="15" transform="translate(85.2817 506)">Light1</text><path d="M302 520.5C302 513.044 307.596 507 314.5 507 321.404 507 327 513.044 327 520.5 327 527.956 321.404 534 314.5 534 307.596 534 302 527.956 302 520.5Z" fill="#96BE0D" fill-rule="evenodd"/><text font-family="Arial,Arial_MSFontService,sans-serif" font-weight="400" font-size="15" transform="translate(296.738 502)">Light4</text><path d="M151 562.5C151 555.044 156.596 549 163.5 549 170.404 549 176 555.044 176 562.5 176 569.956 170.404 576 163.5 576 156.596 576 151 569.956 151 562.5Z" fill="#96BE0D" fill-rule="evenodd"/><text font-family="Arial,Arial_MSFontService,sans-serif" font-weight="400" font-size="15" transform="translate(145.379 544)">Light2</text><path d="M193.5 545.5C193.5 521.752 219.244 502.5 251 502.5 282.756 502.5 308.5 521.752 308.5 545.5 308.5 569.248 282.756 588.5 251 588.5 219.244 588.5 193.5 569.248 193.5 545.5Z" stroke="#000000" stroke-linejoin="round" stroke-miterlimit="10" stroke-dasharray="4 3" fill="none" fill-rule="evenodd"/><text font-family="Arial,Arial_MSFontService,sans-serif" font-weight="400" font-size="15" transform="translate(213.684 529)">Emergency</text><path d="M247 571.5C247 564.044 252.596 558 259.5 558 266.404 558 272 564.044 272 571.5 272 578.956 266.404 585 259.5 585 252.596 585 247 578.956 247 571.5Z" fill="#96BE0D" fill-rule="evenodd"/><text font-family="Arial,Arial_MSFontService,sans-serif" font-weight="400" font-size="15" transform="translate(241.223 553)">Light3</text><path d="M361 491.5C361 484.044 366.596 478 373.5 478 380.404 478 386 484.044 386 491.5 386 498.956 380.404 505 373.5 505 366.596 505 361 498.956 361 491.5Z" fill="#96BE0D" fill-rule="evenodd"/><text font-family="Arial,Arial_MSFontService,sans-serif" font-weight="400" font-size="15" transform="translate(357.167 472)">DevA</text><path d="M353 585.5C353 578.044 358.596 572 365.5 572 372.404 572 378 578.044 378 585.5 378 592.956 372.404 599 365.5 599 358.596 599 353 592.956 353 585.5Z" fill="#96BE0D" fill-rule="evenodd"/><text font-family="Arial,Arial_MSFontService,sans-serif" font-weight="400" font-size="15" transform="translate(349.318 566)">DevB</text><path d="M294 637.5C294 630.044 299.596 624 306.5 624 313.404 624 319 630.044 319 637.5 319 644.956 313.404 651 306.5 651 299.596 651 294 644.956 294 637.5Z" fill="#96BE0D" fill-rule="evenodd"/><text font-family="Arial,Arial_MSFontService,sans-serif" font-weight="400" font-size="15" transform="translate(290.324 618)">DevC</text></g></svg>