<?xml version="1.0" encoding="UTF-8" standalone="no"?>
<!-- Created with Inkscape (http://www.inkscape.org/) -->

<svg
   xmlns:dc="http://purl.org/dc/elements/1.1/"
   xmlns:cc="http://creativecommons.org/ns#"
   xmlns:rdf="http://www.w3.org/1999/02/22-rdf-syntax-ns#"
   xmlns:svg="http://www.w3.org/2000/svg"
   xmlns="http://www.w3.org/2000/svg"
   xmlns:sodipodi="http://sodipodi.sourceforge.net/DTD/sodipodi-0.dtd"
   xmlns:inkscape="http://www.inkscape.org/namespaces/inkscape"
   version="1.0"
   width="120.36"
   height="38.472439"
   id="svg7217"
   sodipodi:docname="Phoenix_Contact_Logo.svg"
   inkscape:version="0.92.2 (5c3e80d, 2017-08-06)">
  <metadata
     id="metadata3741">
    <rdf:RDF>
      <cc:Work
         rdf:about="">
        <dc:format>image/svg+xml</dc:format>
        <dc:type
           rdf:resource="http://purl.org/dc/dcmitype/StillImage" />
        <dc:title></dc:title>
      </cc:Work>
    </rdf:RDF>
  </metadata>
  <sodipodi:namedview
     pagecolor="#ffffff"
     bordercolor="#666666"
     borderopacity="1"
     objecttolerance="10"
     gridtolerance="10"
     guidetolerance="10"
     inkscape:pageopacity="0"
     inkscape:pageshadow="2"
     inkscape:window-width="1680"
     inkscape:window-height="987"
     id="namedview3739"
     showgrid="false"
     inkscape:zoom="2.0494709"
     inkscape:cx="301.45495"
     inkscape:cy="66.201757"
     inkscape:window-x="-8"
     inkscape:window-y="-8"
     inkscape:window-maximized="1"
     inkscape:current-layer="svg7217" />
  <defs
     id="defs7219" />
  <g
     transform="matrix(0.16606583,0,0,0.16606583,-481.04082,251.74769)"
     id="layer1">
    <g
       transform="translate(17.716541,17.735121)"
       id="g13813">
      <path
         d="m 3363.6745,-1395.1264 v -83.1238 h 24.4272 l 35.7824,37.3121 v -37.3121 h 28.643 v 83.1238 h -22.9484 l -37.2273,-37.2273 v 37.2273 h -28.6769"
         style="fill:#ffffff;fill-rule:nonzero;stroke:none"
         id="path8"
         inkscape:connector-curvature="0" />
      <path
         d="m 3150.187,-1395.1264 v -83.1238 h 28.6346 v 28.7277 h 25.804 v -28.7277 h 28.728 v 83.1238 h -28.728 v -31.4477 h -25.804 v 31.4477 h -28.6346"
         style="fill:#ffffff;fill-rule:nonzero;stroke:none"
         id="path10"
         inkscape:connector-curvature="0" />
      <path
         d="m 3495.789,-1478.3352 h 30.0876 l 17.1688,21.5034 17.2538,-21.5034 h 30.0878 l -31.5327,40.1169 35.8674,43.0069 h -34.4225 l -17.2538,-22.8634 -17.1688,22.8634 h -34.4223 l 35.7822,-43.0069 -31.4475,-40.1169"
         style="fill:#ffffff;fill-rule:nonzero;stroke:none"
         id="path12"
         inkscape:connector-curvature="0" />
      <path
         d="m 3134.8118,-1381.2725 c -6.8845,-4.2497 -16.3953,-5.1845 -25.0987,-5.1845 -24.4782,0 -44.4178,17.8486 -44.4178,41.562 0,23.6282 19.9396,41.562 44.4178,41.562 9.2132,0 17.4067,-1.1901 24.6906,-5.7796 v -22.8633 c -3.6462,6.7994 -10.5221,8.5843 -18.6136,8.5843 -11.8396,0 -21.4524,-9.6892 -21.4524,-21.5034 0,-11.8142 9.6128,-21.5885 21.4524,-21.5885 7.6834,0 14.772,2.4648 18.6136,8.5844 v -22.8633 l 0.4081,-0.5101"
         style="fill:#ffffff;fill-rule:nonzero;stroke:none"
         id="path14"
         inkscape:connector-curvature="0" />
      <path
         d="m 3229.1039,-1303.333 v -83.124 h 24.3847 l 35.8163,37.3123 v -37.3123 h 28.6346 v 83.124 h -22.9654 l -37.2359,-37.2273 v 37.2273 h -28.6343"
         style="fill:#ffffff;fill-rule:nonzero;stroke:none"
         id="path16"
         inkscape:connector-curvature="0" />
      <path
         d="m 3345.0525,-1303.333 v -61.6206 h -21.546 v -21.5034 h 71.7347 v 21.5034 h -21.5885 v 61.6206 h -28.6002"
         style="fill:#ffffff;fill-rule:nonzero;stroke:none"
         id="path18"
         inkscape:connector-curvature="0" />
      <path
         d="m 3514.2326,-1364.9536 c -0.425,0 -0.85,0 -1.105,0 -10.5391,1.1899 -17.9336,10.4543 -17.9336,21.4185 0,11.899 9.6042,20.1435 21.5034,20.1435 8.0744,0 14.9588,-1.7849 18.6137,-8.5843 v 22.8633 c -7.3095,4.5895 -15.5539,5.7796 -24.7333,5.7796 -24.4782,0 -44.3668,-16.4889 -44.3668,-40.2021 0,-23.6284 19.8886,-42.9219 44.3668,-42.9219 0.34,0 0.51,0 0.8501,0 h 83.5488 v 21.5034 h -21.5884 v 61.6206 h -28.558 v -61.6206 h -30.5977"
         style="fill:#ffffff;fill-rule:nonzero;stroke:none"
         id="path20"
         inkscape:connector-curvature="0" />
      <path
         d="M 3094.7456,-1345.235 Z"
         style="fill:none;stroke:#ffffff;stroke-width:0.30597767;stroke-linecap:butt;stroke-linejoin:miter;stroke-miterlimit:3.86400008;stroke-dasharray:none"
         id="path22"
         inkscape:connector-curvature="0" />
      <path
         d="m 3459.9216,-1395.1264 h 28.7279 v -83.1238 h -28.7279 z"
         style="fill:#ffffff;fill-rule:nonzero;stroke:none;stroke-width:0.036;stroke-linecap:butt;stroke-linejoin:miter;stroke-miterlimit:3.86400008;stroke-dasharray:none"
         id="path24"
         inkscape:connector-curvature="0" />
      <path
         d="m 2972.3122,-1444.7628 8.0998,0.085 v 9.5193 c 0,3.2298 1.7169,6.4596 4.2497,8.0745 9.1028,3.9947 15.3753,13.0039 15.3753,23.6282 0,9.9443 -5.8646,18.6987 -14.262,22.9484 -2.5328,1.6149 -5.363,5.5246 -5.363,8.6694 v 16.6587 -0.085 c 0,5.0147 4.0456,9.1794 9.1028,9.1794 31.5667,0 57.3709,-25.8381 57.3709,-57.3709 0,-31.7027 -25.8042,-57.5409 -57.3709,-57.5409 -5.0572,0 -9.1028,5.6946 -9.1028,10.6243 v 7.6496 l -12.0436,-0.4251 v -8.5843 c 0,-5.0996 -4.1477,-9.0945 -9.1028,-9.0945 h -31.9747 l -1.4194,-17.4235 h 121.0142 c 6.2725,0 11.5337,5.2695 11.5337,11.4739 v 150.6092 c 0,6.2895 -5.4651,12.1541 -11.7378,12.1541 H 2897.543 c -6.2724,0 -11.2277,-5.2696 -11.2277,-11.5592 v -151.2041 c 0,-6.2044 5.1592,-11.4739 11.4317,-11.4739 h 28.7365 l 1.7169,17.4235 h -14.1601 c -5.0656,0 -9.1113,3.9949 -9.1113,9.0945 v 120.7761 c 0,4.9298 4.0457,9.0094 9.1113,9.0094 h 45.3272 c 4.9551,0 9.0009,-2.5499 9.0009,-7.5645 v -42.3268 c 0,-3.1448 -1.411,-6.0346 -4.0458,-7.5645 -9.6128,-3.7397 -15.5794,-13.1741 -15.5794,-24.0533 0,-9.6892 5.1592,-18.0186 13.0466,-22.4383 2.5328,-1.6149 6.5786,-6.0346 6.5786,-9.2644 v -9.0942 h 7.3859 l -1.3174,27.198 c -7.3859,0 -13.5564,6.0344 -13.5564,13.5989 0,7.3095 6.0769,13.4291 13.463,13.4291 7.4793,0 13.5564,-6.1196 13.5564,-13.4291 0,-7.5645 -5.9751,-13.5989 -13.463,-13.5989 l -2.1247,-27.7081"
         style="fill:#ffffff;fill-rule:nonzero;stroke:none;stroke-width:0.036;stroke-linecap:butt;stroke-linejoin:miter;stroke-miterlimit:3.86400008;stroke-dasharray:none"
         id="path26"
         inkscape:connector-curvature="0" />
      <path
         d="m 3069.851,-1452.1573 v 57.0309 h 31.5667 v -25.7532 h 15.7833 c 15.7834,0 28.6344,-12.834 28.6344,-28.6429 0,-15.8089 -12.851,-28.6427 -28.6344,-28.6427 l -47.35,-0.085 v 28.3879 l 31.5667,0.2548 v -9.9443 h 7.284 c 5.4651,0 10.0207,4.5897 10.0207,10.0293 0,5.4398 -4.5556,10.0293 -10.0207,10.0293 h -7.284 v -11.3892 l -31.5667,-1.2749"
         style="fill:#ffffff;fill-rule:nonzero;stroke:none;stroke-width:0.036;stroke-linecap:butt;stroke-linejoin:miter;stroke-miterlimit:3.86400008;stroke-dasharray:none"
         id="path28"
         inkscape:connector-curvature="0" />
      <path
         d="m 3281.0097,-1478.1652 c -23.2715,1.1898 -42.8966,18.2736 -42.8966,41.1369 0,23.7133 19.5232,41.9019 44.0098,41.9019 0.8076,0 75.9846,0 75.9846,0 V -1415.1 h -34.397 v -11.4741 h 32.986 v -20.1436 h -32.986 v -11.3892 h 34.397 v -20.1433 h -77.302 l 1.2155,21.3334 c 9.9187,-0.17 16.1913,9.0092 16.1913,20.0584 0,10.9643 -5.771,19.8885 -15.9874,19.9735 -8.7033,0 -15.8853,-9.0092 -15.8853,-19.9735 0,-11.0492 7.182,-20.1434 15.8853,-20.1434 l -1.2152,-21.1634"
         style="fill:#ffffff;fill-rule:nonzero;stroke:none;stroke-width:0.036;stroke-linecap:butt;stroke-linejoin:miter;stroke-miterlimit:3.86400008;stroke-dasharray:none"
         id="path30"
         inkscape:connector-curvature="0" />
      <path
         d="m 3180.139,-1364.8686 c 8.6947,0 16.0808,9.0094 16.0808,20.0586 0,11.0491 -7.2841,20.0586 -15.9788,20.0586 -8.7034,0 -15.8853,-9.0095 -15.8853,-20.0586 0,-11.0492 7.1819,-20.1436 15.8853,-20.1436 l 0.6034,-21.6734 c -24.4867,0 -44.7238,18.0186 -44.7238,41.732 0,23.6282 19.9396,41.562 44.4179,41.562 24.4866,0 44.5196,-17.9338 44.5196,-41.562 0,-23.7134 -19.931,-41.562 -44.4177,-41.562 l -0.5014,21.5884"
         style="fill:#ffffff;fill-rule:nonzero;stroke:none;stroke-width:0.036;stroke-linecap:butt;stroke-linejoin:miter;stroke-miterlimit:3.86400008;stroke-dasharray:none"
         id="path32"
         inkscape:connector-curvature="0" />
      <path
         d="m 3428.1338,-1334.8657 h -8.4143 l 7.2244,-20.0586 7.1395,20.0586 h -7.3095 l -0.255,18.6986 h 13.3441 l 4.2497,12.8341 h 31.5327 l -32.8076,-83.124 h -31.7027 0.17 l -33.1477,83.124 h 31.5328 l 4.3347,-12.8341 h 13.7689 l 0.34,-18.6986"
         style="fill:#ffffff;fill-rule:nonzero;stroke:none;stroke-width:0.036;stroke-linecap:butt;stroke-linejoin:miter;stroke-miterlimit:3.86400008;stroke-dasharray:none"
         id="path34"
         inkscape:connector-curvature="0" />
    </g>
  </g>
</svg>
